# xmcd CD database file
#
# Track frame offsets:
#	150
#	18600
#	47100
#	64575
#
# Disc length: 1234 seconds
#
# Revision: 0
# Processed by: cddbd v1.5.1PL0 Copyright (c) Steve Scherf et al.
# Submitted via: CDex 1.51
#
DISCID=2f04d004
DTITLE=RYTHEM - てんきゅっ(ニューサマー便)／小麦色のラブソング
DYEAR=2003
DGENRE=JPop
TTITLE0=てんきゅっ(ニューサマー便)
TTITLE1=小麦色のラブソング
TTITLE2=てんきゅっ(ニューサマー便) -Instrumental-
TTITLE3=小麦色のラブソング -Instrumental-
EXTD=YEAR: 2003
EXTT0=
EXTT1=
EXTT2=
EXTT3=
PLAYORDER=
